# xmcd
#
# Track frame offsets:
#	150
#	13297
#	24490
#	37257
#	55342
#	71430
#	83110
#	95130
#	106042
#	117342
#	132107
#	150550
#	162135
#	178282
#
# Disc length: 2537
#
# Revision: 2
# Processed by: cddbd v1.5.1PL0 Copyright (c) Steve Scherf et al.
# Submitted via: audiograbber 1.82.02
# Normalized: r1:DSETVAR1
#
DISCID=b909e70e
DTITLE=Various Artist - Mr. Music Country 95-03
DYEAR=1995
DGENRE=Country
TTITLE0=Amie Comeaux - Who's She To You
TTITLE1=Sammy Kershaw - Better Call A Preacher
TTITLE2=Johnny Paycheck - The Waltz Of Angels
TTITLE3=Billy Ray Cyrus - Redneck Heaven
TTITLE4=Chely Wright - Sea Of Cowboy Hats
TTITLE5=Frank Dycus - Living Alone
TTITLE6=Ronna Reeves - Waitin' For The Phone To Ring
TTITLE7=Toby Keith - You Ain't Much Fun
TTITLE8=Danny Roy - I'm Not Taking Any Chances To Hurt Again
TTITLE9=John and Audrey Wiggins - She's In The Bedroom Crying
TTITLE10=Davis Daniel - She Could Make A Freight Train Take A Dirt Road
TTITLE11=The Statler Brothers - If I'd Paid More Attention To You
TTITLE12=Bill Lowdon - Nothing Better To Do
TTITLE13=Kathy Mattea - The Cape
EXTD=
EXTT0=
EXTT1=
EXTT2=
EXTT3=
EXTT4=
EXTT5=
EXTT6=
EXTT7=
EXTT8=
EXTT9=
EXTT10=
EXTT11=
EXTT12=
EXTT13=
PLAYORDER=
